<?xml version="1.0" encoding="utf-8"?>
<!-- Generator: Adobe Illustrator 21.0.2, SVG Export Plug-In . SVG Version: 6.00 Build 0)  -->
<svg version="1.1" id="Layer_1" xmlns:serif="http://www.serif.com/"
	 xmlns="http://www.w3.org/2000/svg" xmlns:xlink="http://www.w3.org/1999/xlink" x="0px" y="0px" viewBox="0 0 1000 1000"
	 style="enable-background:new 0 0 1000 1000;" xml:space="preserve">
<style type="text/css">
	.st0{display:none;fill:#0A66C2;}
	.st1{fill:#0A66C2;}
</style>
<g transform="matrix(1,0,0,1,-138.462,-287.425)">
	<path class="st0" d="M1123.9,869.3C1123.9,869.3,1123.9,869.3,1123.9,869.3c2.5,0,4.5-2,4.5-4.5c0-0.1,0-0.2,0-0.3c0-3.4-2-5-6.2-5
		h-6.7v17.6h2.5v-7.7h3.1l0.1,0.1l4.8,7.6h2.7l-5.2-7.8L1123.9,869.3z M1121,867.6h-2.9v-5.9h3.7c1.9,0,4.1,0.3,4.1,2.8
		C1125.9,867.4,1123.7,867.6,1121,867.6 M139,676.9h37.3v135.9h69.1v34.4H139V676.9z M261.9,731.8h35.9v115.5h-35.9V731.8z
		 M279.8,674.4c11.4,0,20.8,9.4,20.8,20.8c0,11.4-9.4,20.8-20.8,20.8c-11.4,0-20.8-9.4-20.8-20.8C259,683.8,268.4,674.4,279.8,674.4
		C279.8,674.4,279.8,674.4,279.8,674.4 M447.7,676.9h35.9v101.8l40.6-47h44l-47.1,53.5l46.1,62.1h-45.1L484,790.2h-0.5v57.1h-35.9
		L447.7,676.9z M317.6,731.8H352v15.8h0.5c7-12,20.1-19.2,33.9-18.7c36.4,0,43,23.9,43,55v63.3h-35.9v-56.1
		c0-13.4-0.2-30.6-18.7-30.6c-18.6,0-21.5,14.6-21.5,29.6v57.1h-35.9L317.6,731.8z"/>
	<path class="st1" d="M1064.4,287.4L1064.4,287.4l-852.2,0.1c-40-0.5-73.3,32.1-73.8,72.1v855.7c0.5,40,33.8,72.6,73.8,72.2h852.2
		c40.1,0.5,73.5-32.1,74.1-72.2V359.5C1137.9,319.4,1104.5,286.9,1064.4,287.4z M435,1139.5H286.7V662.3H435V1139.5z M446.9,511.1
		c0,47.2-38.8,86-86,86h0c-47.2,0-86-38.8-86-86s38.8-86,86-86C408.1,425.1,446.9,463.9,446.9,511.1L446.9,511.1z M990.5,1139.5
		H842.4v-232c0-55.3-1-126.6-77.1-126.6c-77.2,0-89,60.3-89,122.5v236.1H528.1V662.3h142.2v65.2h2c29-49.5,83-79.2,140.3-77.1
		c150.2,0,177.9,98.8,177.9,227.3L990.5,1139.5z"/>
</g>
</svg>
